<?xml version="1.0" encoding="UTF-8" standalone="no"?>
<!-- Generator: Adobe Illustrator 17.0.0, SVG Export Plug-In . SVG Version: 6.00 Build 0)  -->

<svg
   xmlns:dc="http://purl.org/dc/elements/1.1/"
   xmlns:cc="http://creativecommons.org/ns#"
   xmlns:rdf="http://www.w3.org/1999/02/22-rdf-syntax-ns#"
   xmlns:svg="http://www.w3.org/2000/svg"
   xmlns="http://www.w3.org/2000/svg"
   xmlns:sodipodi="http://sodipodi.sourceforge.net/DTD/sodipodi-0.dtd"
   xmlns:inkscape="http://www.inkscape.org/namespaces/inkscape"
   version="1.1"
   id="Layer_1"
   x="0px"
   y="0px"
   width="100"
   height="100"
   viewBox="0 0 100 100"
   enable-background="new 0 0 612 792"
   xml:space="preserve"
   sodipodi:docname="type_one-man-show.svg"
   inkscape:version="0.92.4 5da689c313, 2019-01-14"><metadata
   id="metadata15"><rdf:RDF><cc:Work
       rdf:about=""><dc:format>image/svg+xml</dc:format><dc:type
         rdf:resource="http://purl.org/dc/dcmitype/StillImage" /><dc:title></dc:title></cc:Work></rdf:RDF></metadata><defs
   id="defs13" /><sodipodi:namedview
   pagecolor="#ffffff"
   bordercolor="#666666"
   borderopacity="1"
   objecttolerance="10"
   gridtolerance="10"
   guidetolerance="10"
   inkscape:pageopacity="0"
   inkscape:pageshadow="2"
   inkscape:window-width="1918"
   inkscape:window-height="1038"
   id="namedview11"
   showgrid="false"
   inkscape:zoom="6.7425131"
   inkscape:cx="53.136368"
   inkscape:cy="20.736479"
   inkscape:window-x="0"
   inkscape:window-y="20"
   inkscape:window-maximized="1"
   inkscape:current-layer="Layer_1" />
<g
   id="g8"
   transform="matrix(0.16745942,0,0,0.17111299,-0.7543833,-17.546408)">
	<path
   d="m 250.576,444.206 c -6.72,-1.069 -13.312,-0.929 -19.757,1.501 C 149.234,476.476 91.05,555.361 91.05,647.579 c 0,5.51 4.468,9.978 9.978,9.978 h 411.356 c 5.51,0 9.978,-4.468 9.978,-9.978 0,-91.746 -57.589,-170.295 -138.517,-201.396 -5.753,-2.211 -11.624,-2.637 -17.6,-2.025 z"
   id="path2"
   inkscape:connector-curvature="0"
   sodipodi:nodetypes="ccssssccc" />
	
	<path
   d="m 428.313,323.066 8.053,-21.844 -41.488,-15.296 39.978,-108.437 -114.511,-42.217 -39.978,108.437 -41.488,-15.296 -8.053,21.844 z"
   id="path6"
   inkscape:connector-curvature="0"
   sodipodi:nodetypes="ccccccccc" />
</g>
<ellipse
   style="fill:#ffffff;fill-opacity:1;stroke:#000000;stroke-width:4.5;stroke-linecap:round;stroke-miterlimit:4;stroke-dasharray:none;stroke-opacity:1;paint-order:stroke markers fill"
   id="path825"
   cx="50.352142"
   cy="44.011974"
   rx="15.572829"
   ry="15.276203" /><ellipse
   style="fill:#ffffff;fill-opacity:1;stroke:#000000;stroke-width:4.5;stroke-linecap:round;stroke-miterlimit:4;stroke-dasharray:none;stroke-opacity:1;paint-order:stroke markers fill"
   id="path827"
   cx="44.19717"
   cy="39.859219"
   rx="3.7078164"
   ry="3.0404093" /><ellipse
   style="fill:#ffffff;fill-opacity:1;stroke:#000000;stroke-width:4.5;stroke-linecap:round;stroke-miterlimit:4;stroke-dasharray:none;stroke-opacity:1;paint-order:stroke markers fill"
   id="path829"
   cx="57.174526"
   cy="41.935596"
   rx="1.7055955"
   ry="2.0022209" /><path
   style="fill:#ffffff;fill-opacity:1;stroke:none;stroke-width:1px;stroke-linecap:butt;stroke-linejoin:miter;stroke-opacity:1"
   d="m 48.475092,62.720751 0.926955,2.940843 -1.325449,19.51173 3.034532,7.973073 2.71766,-8.101926 -2.573992,-19.420297 1.260658,-2.908793 -2.065856,-2.042716 z"
   id="path831"
   inkscape:connector-curvature="0"
   sodipodi:nodetypes="ccccccccc" /></svg>