<?xml version="1.0" encoding="UTF-8" standalone="no"?>
<svg
   xmlns:dc="http://purl.org/dc/elements/1.1/"
   xmlns:cc="http://creativecommons.org/ns#"
   xmlns:rdf="http://www.w3.org/1999/02/22-rdf-syntax-ns#"
   xmlns:svg="http://www.w3.org/2000/svg"
   xmlns="http://www.w3.org/2000/svg"
   width="499"
   height="498"
   viewBox="0 0 499 498">
  <rect
     style="fill:#4c83e5;fill-opacity:1;stroke:none;stroke-width:8.82841587;stroke-opacity:1"
     width="500"
     height="500"
     x="0"
     y="-1.9999847" />
  <path
     style="fill:#ffffff;fill-opacity:1;stroke:none;stroke-opacity:1"
     d="m 204.04675,299.92172 64.38231,-8.25011 84.38034,95.33059 -50.65607,144.5704 -137.27461,10.07178 -8.02011,-145.66775 z"/>
  <path
     d="m 151.70726,153.48377 98.32028,-57.471057 56.94703,21.629237 42.18786,87.1369 -8.8547,99.27952 c 0,0 -50.49799,16.08876 -49.46915,20.02305 1.64608,6.29463 -6.63579,19.542 -19.42333,31.06884 -11.04013,9.95169 -21.88069,22.4832 -25.78302,29.80472 -1.77209,3.32477 -3.61064,6.04503 -4.08568,6.04503 -0.47504,0 -2.26404,-4.6125 -3.97555,-10.25 -7.0054,-23.07485 -5.43752,-20.34841 -16.04346,-27.89857 -14.90382,-10.60973 -22.13256,-19.44659 -23.88228,-29.19518 l -0.74599,-4.15625 -49.90362,-18.10466 z"
     style="fill:#fbd0a6"/>
  <path
     d="m 55.528901,495.75001 c 0.527163,-1.2375 3.024666,-9.9 5.550006,-19.25 8.980498,-33.25004 20.717058,-73.14872 24.415208,-83 7.96468,-21.21664 17.411415,-36.82083 25.634775,-42.3437 3.46578,-2.32765 7.75343,-3.40938 27.99561,-7.063 24.83316,-4.48226 37.7984,-7.72387 44.43556,-11.10989 2.13829,-1.09087 4.2852,-1.98341 4.77091,-1.98341 0.48571,0 0.25824,3.0375 -0.50549,6.75 -1.50052,7.29402 -2.99983,49.3173 -1.91392,53.64393 0.99077,3.94752 2.8969,3.16745 7.07154,-2.89393 3.53084,-5.12662 5.54444,-6.78317 5.54444,-4.56129 0,2.60045 5.3114,31.27728 8.05039,43.46495 5.98108,26.61396 16.76339,62.48393 20.54452,68.34634 l 1.4512,2.25 H 141.57203 54.570422 Z m 210.460079,-0.0508 c 2.17179,-3.31457 8.92419,-24.36077 12.96435,-40.40789 4.43614,-17.61992 8.08383,-37.40934 10.50604,-56.99725 1.05232,-8.50988 2.1619,-15.72111 2.46573,-16.02495 0.64309,-0.64309 2.6928,1.66469 9.7848,11.01675 3.42759,4.51989 5.47957,6.45222 6.14506,5.78673 1.18368,-1.18368 -0.68453,-30.51729 -2.75684,-43.28638 -1.74071,-10.72592 -4.37632,-21.1576 -6.74023,-26.67774 -1.03434,-2.41534 -1.68984,-4.5823 -1.45667,-4.81547 0.23317,-0.23317 3.05697,0.90265 6.27513,2.52404 9.1322,4.60104 20.99201,7.95377 45.19529,12.77659 12.28926,2.44879 23.57308,5.08787 25.07515,5.86462 9.57196,4.94985 22.94665,28.40208 32.96941,57.8111 2.76841,8.12314 10.28609,32.19814 16.70596,53.5 6.41986,21.30186 11.88553,39.29316 12.14592,39.98066 0.37646,0.99395 -17.06674,1.25 -85.1566,1.25 H 264.48143 Z M 292.3029,319.27575 c -3.48342,-3.65128 -4.45897,-6.45791 -5.83264,-16.7804 l -1.14521,-8.60577 5.12567,-8.35825 c 7.3769,-12.02924 13.35778,-24.49549 17.52649,-36.53131 3.20476,-9.25271 4.17092,-10.95875 8.13338,-14.36186 5.35782,-4.60148 8.85325,-11.11418 11.48239,-21.39399 2.20459,-8.6199 2.40904,-13.47419 0.83135,-19.73974 -2.07703,-8.24867 -6.91023,-9.75732 -10.39679,-3.24531 -1.1,2.05452 -2.31639,3.73671 -2.70308,3.7382 -0.3867,0.001 -1.47529,-1.6246 -2.41909,-3.61352 -3.45146,-7.2734 -12.43759,-11.95743 -37.37783,-19.4832 -36.97908,-11.15851 -50.57658,-17.84965 -64.69138,-31.83371 -7.11369,-7.0478 -9.1226,-7.45885 -17.07813,-3.49444 -6.3577,3.16818 -14.21568,11.58946 -17.71356,18.98336 -3.59507,7.59935 -6.48828,19.31308 -7.21077,29.19421 -0.33177,4.5375 -0.80892,8.25 -1.06034,8.25 -0.25141,0 -1.79409,-1.125 -3.42819,-2.5 -3.73675,-3.14427 -4.36211,-3.12484 -6.54282,0.20333 -2.23258,3.40736 -2.43946,17.43846 -0.3656,24.79667 2.41169,8.55685 6.77334,16.1351 11.61665,20.18361 3.60598,3.01423 4.89833,4.96775 6.16195,9.31445 2.92343,10.05624 10.27022,26.25548 16.96068,37.3973 l 6.60969,11.0073 -0.6645,10.04867 c -0.74861,11.32069 -1.9804,16.16987 -4.42377,17.41502 -1.56622,0.79815 -24.35316,-0.0941 -35.85864,-1.40416 -6.56738,-0.74777 -11.84347,-4.46271 -17.76801,-12.51063 -12.10229,-16.43979 -15.71037,-32.44915 -13.58553,-60.28013 4.7534,-62.25964 27.2222,-120.24856 52.91047,-136.55478 2.54749,-1.61707 7.03281,-3.64203 9.96737,-4.49991 3.87995,-1.13423 6.9751,-3.07768 11.34521,-7.123635 12.46712,-11.54236 25.74733,-15.92105 46.31922,-15.27215 11.32895,0.35735 14.13371,0.80718 21.81973,3.49945 16.5524,5.798 31.67451,16.565115 46.03801,32.779585 14.3084,16.15227 22.61268,30.83521 30.69285,54.26859 16.39981,47.56123 14.10848,112.15599 -4.86138,137.04726 -4.08556,5.36086 -8.18764,6.77337 -26.3982,9.08991 -9.18994,1.16905 -17.30716,2.35507 -18.03825,2.63562 -0.7311,0.28055 -2.52093,-0.73899 -3.9774,-2.26565 z"
     style="fill:#4e4e4d" />
</svg>
