<?xml version="1.0" encoding="UTF-8" standalone="no"?>
<!-- Created with Inkscape (http://www.inkscape.org/) -->

<svg
   xmlns:dc="http://purl.org/dc/elements/1.1/"
   xmlns:cc="http://creativecommons.org/ns#"
   xmlns:rdf="http://www.w3.org/1999/02/22-rdf-syntax-ns#"
   xmlns:svg="http://www.w3.org/2000/svg"
   xmlns="http://www.w3.org/2000/svg"
   xmlns:sodipodi="http://sodipodi.sourceforge.net/DTD/sodipodi-0.dtd"
   xmlns:inkscape="http://www.inkscape.org/namespaces/inkscape"
   version="1.1"
   id="svg2"
   width="512"
   height="512"
   viewBox="0 0 512 512"
   sodipodi:docname="share.svg"
   inkscape:version="0.92.2 2405546, 2018-03-11">
  <metadata
     id="metadata8">
    <rdf:RDF>
      <cc:Work
         rdf:about="">
        <dc:format>image/svg+xml</dc:format>
        <dc:type
           rdf:resource="http://purl.org/dc/dcmitype/StillImage" />
        <dc:title />
      </cc:Work>
    </rdf:RDF>
  </metadata>
  <defs
     id="defs6" />
  <sodipodi:namedview
     pagecolor="#ffffff"
     bordercolor="#666666"
     borderopacity="1"
     objecttolerance="10"
     gridtolerance="10"
     guidetolerance="10"
     inkscape:pageopacity="0"
     inkscape:pageshadow="2"
     inkscape:window-width="1598"
     inkscape:window-height="858"
     id="namedview4"
     showgrid="false"
     inkscape:zoom="0.921875"
     inkscape:cx="152.19094"
     inkscape:cy="192.8388"
     inkscape:window-x="0"
     inkscape:window-y="20"
     inkscape:window-maximized="1"
     inkscape:current-layer="svg2" />
  <path
     style="fill:#ffffff;fill-opacity:1"
     d="m 365.33203,17.716797 c -1.43231,-0.0069 -2.73965,0.04551 -3.88086,0.164062 -28.30566,2.940439 -52.11275,19.947617 -64.07031,45.771485 -3.87701,8.372938 -7.17799,28.189586 -6.22461,37.367186 1.60964,15.49493 6.9434,28.52568 17.20508,42.03906 6.99936,9.21731 7.66126,11.96344 4.44726,18.4043 -6.02225,12.06851 -23.47671,42.58237 -25.55273,44.66992 -3.28548,3.30374 -6.97678,4.25376 -14.58594,3.75586 -15.70921,-1.0279 -31.11052,2.27893 -44.80078,9.0293 -1.52922,0.0906 -2.70602,-0.22501 -4.56641,-0.87891 -8.40577,-2.95451 -10.46822,-6.27617 -31.07421,-50.03711 -17.51747,-37.20186 -18.8782,-40.45372 -20.78711,-49.60937 -2.48491,-11.91834 -2.04561,-15.37777 3.19531,-25.044924 13.41469,-24.744069 5.63161,-53.987088 -18.16797,-68.248047 -16.88689,-10.118823 -38.09734,-9.769722 -54.39453,0.894532 -21.82031,14.278363 -29.392019,43.069171 -17.408204,66.195312 7.064989,13.633857 18.596744,22.125007 36.628904,26.968747 11.82788,3.17717 19.80735,7.31033 24.52149,12.70313 3.42903,3.92271 9.24864,15.67151 30.0664,60.70117 19.86351,42.96559 21.16088,48.59796 14.11524,61.31836 -0.0585,0.1056 -0.10624,0.19993 -0.16407,0.30469 -0.003,0.004 -0.005,0.006 -0.008,0.01 -1.47349,2.50881 -2.81636,5.11357 -4.05078,7.78711 -2.7681,5.72836 -4.49027,10.49392 -5.92578,16.19336 l 0.0684,1.75195 c -3.43058,16.26192 -0.41099,38.95835 1.82422,47.30665 2.23521,8.34829 1.46907,6.34595 2.09375,9.33007 0.62468,2.98412 -0.66414,6.04606 -2.125,9.08594 -2.18453,4.54578 -5.06067,7.13249 -27.58594,24.82031 -31.90176,25.05078 -30.26783,24.44628 -48.60352,17.97266 -5.2856,-1.86613 -8.246222,-2.36382 -14.003902,-2.34961 -31.75965,0.0782 -56.105229,28.76228 -50.86914,59.93164 3.023729,17.99965 16.654337,34.07475 33.917968,40.00586 5.336128,1.83328 13.567313,2.84642 19.773438,2.43359 29.679296,-1.97429 51.332686,-29.28037 46.984376,-59.25586 -2.11863,-14.605 -2.51798,-14.06537 28.29492,-38.40429 25.15879,-19.87278 31.56343,-23.89656 36.6875,-23.04297 0.0521,0.009 0.13669,0.0424 0.19922,0.0586 16.09761,14.24685 37.23534,22.72087 56.98148,21.30382 19.84203,-0.7459 26.48015,-2.89575 29.84469,-3.94249 7.46466,-2.32233 14.25615,-1.49651 19.91211,2.42188 5.64013,3.90741 36.69631,39.83708 38.63281,44.69531 1.28906,3.23394 1.38502,5.5476 0.45899,11.13086 -3.04063,18.33376 4.82968,34.49527 20.68164,42.46875 16.38421,8.2412 37.00924,3.14349 47.66601,-11.78125 7.26106,-10.16908 9.18459,-22.00014 5.5586,-34.17969 -4.96748,-16.68553 -22.74829,-28.57452 -39.72657,-26.56445 -7.65593,0.90639 -13.19963,-0.12436 -17.26757,-3.20899 -5.95781,-4.51767 -31.211,-34.84833 -32.85938,-39.46679 -2.70194,-7.57036 -2.13477,-10.94805 3.17774,-18.95508 10.00636,-15.08148 15.04259,-28.85781 16.72851,-45.75 1.83515,-22.29184 -0.25821,-39.18896 -15.49219,-57.53907 -6.90279,-9.01821 -11.54645,-13.87172 -18.20117,-19.01953 -8.65535,-6.69542 -10.19127,-8.81814 -9.47265,-13.10156 0.78016,-4.65285 23.02177,-44.71107 26.00976,-46.8457 2.07543,-1.48272 3.40675,-1.45211 12.40235,0.27929 31.16105,5.9977 59.82662,-5.08834 78.22656,-30.25195 7.39764,-10.11695 11.02867,-18.99149 13.26172,-32.39648 3.01516,-18.099868 0.28058,-34.252191 -8.52344,-50.306643 -7.234,-13.191818 -21.43062,-26.227367 -35.62695,-32.714844 -4.23591,-1.935736 -11.31155,-3.72547 -18.46875,-4.914062 -5.3679,-0.891447 -10.78119,-1.444158 -15.07813,-1.464844 z m 0.74024,25.451172 c 2.2114,-0.03304 4.48396,0.07626 6.85351,0.310547 12.6376,1.249549 27.83919,9.631046 35.98242,20.951172 22.564,31.366832 3.88337,75.879682 -33.99804,81.005862 -9.51303,1.28732 -22.70309,-1.0244 -30.84961,-5.40821 -19.93397,-10.72687 -30.19811,-31.57569 -26.49414,-53.810543 2.42101,-14.533227 8.61525,-24.427678 20.69921,-33.060547 9.82324,-7.017791 18.22389,-9.845094 27.80665,-9.988281 z m -236.4375,0.228515 c 1.63517,-0.03064 3.29283,0.11036 4.93554,0.408204 7.22793,1.310507 14.16165,5.649104 17.58789,11.667968 6.17879,10.854268 3.89562,24.293521 -5.59179,32.894532 -5.28445,4.790733 -15.20667,6.959109 -22.73047,4.970703 -9.42912,-2.491954 -15.87751,-8.820145 -18.13672,-17.794922 -2.00295,-7.956759 -1.31341,-12.914274 2.74023,-19.695313 4.09884,-6.856667 8.0915,-9.735566 16.39649,-11.826172 1.55271,-0.390863 3.16365,-0.594357 4.79883,-0.625 z M 269.22852,238.16992 c 33.46581,-1.4e-4 60.59537,27.81586 60.5957,62.12891 7.2e-4,34.31381 -27.12915,62.131 -60.5957,62.13086 -33.46656,1.4e-4 -60.59643,-27.81705 -60.59571,-62.13086 3.3e-4,-34.31305 27.1299,-62.12905 60.59571,-62.12891 z m -0.65235,22.01563 c -22.09139,0 -40,17.90861 -40,40 0,22.09139 17.90861,40 40,40 22.09139,0 40,-17.90861 40,-40 0,-22.09139 -17.90861,-40 -40,-40 z M 89.251953,398.99609 c 2.289091,0.0211 4.856567,0.30866 8.306641,0.86914 8.058706,1.3092 9.461546,1.8471 14.779296,5.66407 10.93607,7.84967 17.00153,19.46252 16.93164,32.42187 -0.10049,18.62848 -14.29696,34.80622 -32.777342,37.34766 -19.512372,2.68336 -37.236573,-9.09685 -42.628907,-28.33399 -1.479064,-5.27658 -1.484595,-7.27953 -0.04492,-15.92187 1.528182,-9.17363 1.957288,-10.31726 5.96875,-15.90625 5.380883,-7.49694 14.398334,-13.58367 22.822266,-15.4082 2.341675,-0.50718 4.353487,-0.75356 6.642578,-0.73243 z M 389.5957,426.09961 c 1.31865,0.0269 2.66163,0.15685 4.02539,0.39062 0.10779,-0.64705 1.29807,0.24446 1.95313,0.40235 7.2645,1.75078 11.01494,4.18593 14.97461,9.72851 4.30137,6.02092 5.39889,11.15158 4.08008,19.06836 -1.69454,10.17231 -7.87349,17.50371 -17.33789,20.57422 -1.90632,0.61847 -6.60235,0.78852 -10.4375,0.38086 -6.05546,-0.64368 -7.59492,-1.19783 -11.69336,-4.2168 -11.6292,-8.56626 -14.22269,-24.26029 -5.9043,-35.73242 4.86458,-6.70884 11.50762,-10.34986 19.0293,-10.58789 0.43394,-0.0137 0.87099,-0.0168 1.31054,-0.008 z"
     id="path817"
     inkscape:connector-curvature="0"
     sodipodi:nodetypes="sscssccccsssssssscsccccccssccccsscsscccscccsssssscccscccsccsssssssssssscsssscsscscccscsssccscscssscccccsccccccccc" />
</svg>
