<?xml version="1.0" encoding="utf-8"?>
<!-- Svg Vector Icons : http://www.onlinewebfonts.com/icon -->
<!DOCTYPE svg PUBLIC "-//W3C//DTD SVG 1.1//EN" "http://www.w3.org/Graphics/SVG/1.1/DTD/svg11.dtd">
<svg version="1.1" xmlns="http://www.w3.org/2000/svg" xmlns:xlink="http://www.w3.org/1999/xlink" x="0px" y="0px" viewBox="0 0 1000 1000" enable-background="new 0 0 1000 1000" xml:space="preserve">
<metadata> Svg Vector Icons : http://www.onlinewebfonts.com/icon </metadata>
<g><g transform="translate(0.000000,511.000000) scale(0.100000,-0.100000)"><path d="M1916.9,4475c-63.3-8.4-179.4-40.1-257.4-69.6c-386.2-145.6-664.7-436.8-810.3-846.2l-59.1-168.8l-6.3-1470.8l-6.3-1472.9h504.3c489.6,0,510.7,2.1,671.1,54.9C3265.4,938.3,4447.1,2540,4799.5,4356.9l27.4,141.4l-1397-2.1C2663.9,4494,1982.3,4485.6,1916.9,4475z"/><path d="M5202.6,4346.3c147.7-774.5,466.4-1553.1,905.3-2211.5c542.3-814.6,1236.6-1399.1,1939.3-1633.3c160.4-52.8,181.5-54.9,668.9-54.9h504.4v1388.5c-2.1,1470.8-6.3,1574.2-103.4,1814.8c-145.6,363-438.9,637.3-835.7,778.7l-168.8,59.1l-1468.7,6.3l-1470.8,6.3L5202.6,4346.3z"/><path d="M4917.7,1250.6c-16.9-10.6-88.6-194.2-160.4-407.3l-130.8-386.2l-413.6-10.6c-365.1-8.4-415.7-14.8-455.8-50.6c-48.5-44.3-59.1-135.1-16.9-185.7c12.7-16.9,164.6-135.1,337.6-257.4c170.9-124.5,310.2-227.9,310.2-230c0-2.1-52.8-164.6-116.1-362.9c-63.3-196.3-116.1-388.3-116.1-426.3c0-73.8,61.2-132.9,137.2-132.9c23.2,0,192,107.6,373.5,240.5l331.3,242.7l331.3-242.7c183.6-132.9,352.4-240.5,377.7-240.5c76,0,137.2,59.1,137.2,132.9c0,38-52.8,225.8-116.1,415.7S5612-296.2,5612-289.9c0,8.4,139.3,118.2,312.3,242.7c170.9,122.4,322.9,240.6,337.6,257.4c44.3,57,29.6,145.6-29.6,192c-52.8,42.2-84.4,44.3-460,44.3l-403.1,2.1l-116.1,360.9c-63.3,198.4-132.9,384.1-154,411.5C5059.1,1271.7,4972.6,1284.4,4917.7,1250.6z"/><path d="M779.5-1070.7v-1179.6l280.7-8.5c261.7-6.3,287-10.5,420-73.9c160.4-76,325-219.5,411.5-356.6c33.8-50.6,65.4-92.8,71.7-92.8c6.3,0,23.2,23.2,33.8,48.5c54.9,118.2,263.8,310.2,424.2,388.3c154.1,76,170.9,80.2,411.5,88.6l251.1,6.3l-14.8,109.7c-42.2,320.8-217.3,873.6-379.8,1194.4C2505.7-579,2197.6-199.2,1914.8,14l-126.6,94.9h-504.3H779.5V-1070.7z"/><path d="M8085.2,14c-287-215.3-595.1-599.3-780.8-970.7c-162.5-329.2-327.1-848.3-373.5-1183.9l-14.8-109.7l251.1-8.5c227.9-6.3,261.7-12.7,390.4-73.9c158.3-73.9,325-217.3,411.5-356.6c33.8-50.6,65.4-92.8,71.7-92.8c6.3,0,23.2,23.2,33.8,48.5c54.9,118.2,263.8,310.2,424.2,388.3c156.2,78.1,164.6,80.2,441,86.5l280.7,8.5v1179.6V108.9h-504.4h-504.3L8085.2,14z"/><path d="M593.8-2632.3c-137.2-48.6-280.7-181.5-352.4-329.2c-101.3-208.9-120.3-329.2-130.8-837.8L100-4280.4h848.3h848.3l-10.6,481.1c-10.5,510.7-29.6,628.9-130.8,839.9c-73.9,151.9-230,293.3-371.4,333.4C1123.5-2577.4,741.5-2581.6,593.8-2632.3z"/><path d="M2619.6-2632.3c-137.2-48.6-280.7-181.5-352.4-329.2c-101.3-208.9-120.3-329.2-130.8-837.8l-10.5-481.1h848.3h848.3l-10.6,481.1c-10.6,510.7-29.6,628.9-130.8,839.9c-73.9,151.9-230,293.3-371.4,333.4C3149.3-2577.4,2767.4-2581.6,2619.6-2632.3z"/><path d="M4645.5-2632.3c-204.7-69.6-379.8-299.6-447.4-582.4c-12.7-57-29.5-320.8-35.9-584.6l-10.6-481.1H5000h848.3l-10.5,481.1c-10.5,510.7-29.6,628.9-130.8,839.9c-73.9,151.9-230,293.3-371.4,333.4C5175.1-2577.4,4793.2-2581.6,4645.5-2632.3z"/><path d="M6671.3-2632.3c-137.2-48.6-280.7-181.5-352.4-329.2c-101.3-208.9-120.3-329.2-130.8-837.8l-10.5-481.1h848.3h848.3l-10.5,481.1c-10.6,510.7-29.6,628.9-130.8,839.9c-73.9,151.9-230,293.3-371.4,333.4C7201-2577.4,6819-2581.6,6671.3-2632.3z"/><path d="M8697.2-2632.3c-137.2-48.6-280.7-181.5-352.4-329.2c-101.3-208.9-120.3-329.2-130.8-837.8l-10.6-481.1h848.3H9900l-10.6,481.1c-10.5,510.7-29.6,628.9-130.8,839.9c-73.9,151.9-230,293.3-371.4,333.4C9226.8-2577.4,8844.9-2581.6,8697.2-2632.3z"/></g></g>
</svg>